<svg xmlns="http://www.w3.org/2000/svg" xmlns:xlink="http://www.w3.org/1999/xlink" width="100.501" height="29.629" viewBox="0 0 100.501 29.629">
  <defs>
    <clipPath id="clip-path">
      <path id="Clip_13" data-name="Clip 13" d="M0,0V2.312H3.943v9.951H6.8V2.312h3.943V0Z" fill="none"/>
    </clipPath>
    <clipPath id="clip-path-2">
      <path id="Clip_16" data-name="Clip 16" d="M2.923,12.264H0L5.493,0H8.31l5.51,12.263H10.827L9.736,9.636H4.015L2.923,12.263ZM6.884,2.786,4.93,7.481H8.838Z" fill="none"/>
    </clipPath>
    <clipPath id="clip-path-3">
      <path id="Clip_19" data-name="Clip 19" d="M11.513,0,6.972,7.62,2.36,0H0V12.263H2.677v-7.2l3.609,5.9H7.571L11.2,4.905l.017,7.358H13.89L13.856,0Z" fill="none"/>
    </clipPath>
    <clipPath id="clip-path-4">
      <path id="Clip_22" data-name="Clip 22" d="M2.923,12.264H0L5.492,0H8.31l5.508,12.263H10.826L9.735,9.636H4.014L2.923,12.263Zm3.96-9.478L4.93,7.481H8.837Z" fill="none"/>
    </clipPath>
    <clipPath id="clip-path-5">
      <path id="Clip_25" data-name="Clip 25" d="M0,1.682A1.554,1.554,0,0,0,.934,3.188h0L.176,5.956H1.919L2.94,3.434A4.229,4.229,0,0,0,3.4,1.682h0A1.614,1.614,0,0,0,1.708,0h0A1.628,1.628,0,0,0,0,1.682Z" fill="none"/>
    </clipPath>
    <clipPath id="clip-path-6">
      <path id="Clip_28" data-name="Clip 28" d="M2.923,12.264H0L5.493,0H8.31l5.51,12.263H10.826L9.735,9.636H4.015L2.923,12.263Zm3.96-9.478L4.93,7.481H8.838Z" fill="none"/>
    </clipPath>
    <clipPath id="clip-path-7">
      <path id="Clip_31" data-name="Clip 31" d="M1.2,12.116H0V0H4.494A5.287,5.287,0,0,1,8,1.048,3.7,3.7,0,0,1,9.232,4.021,3.915,3.915,0,0,1,8,7.107,5.141,5.141,0,0,1,4.494,8.2H1.2v3.917Zm0-11.041V7.123H4.442a4.122,4.122,0,0,0,2.691-.788,2.806,2.806,0,0,0,.949-2.28,2.7,2.7,0,0,0-.94-2.218,4.208,4.208,0,0,0-2.7-.762Z" fill="none"/>
    </clipPath>
    <clipPath id="clip-path-8">
      <path id="Clip_34" data-name="Clip 34" d="M1.289,12.116H0L5.487,0H6.741l5.486,12.116H10.921L9.476,8.892H2.718L1.289,12.116ZM6.079,1.265,3.188,7.818H9L6.079,1.265Z" transform="translate(0 0)" fill="none"/>
    </clipPath>
    <clipPath id="clip-path-9">
      <path id="Clip_37" data-name="Clip 37" d="M2.665.372A3.3,3.3,0,0,0,1.2,1.439h0A2.6,2.6,0,0,0,.68,3.051h0A2.744,2.744,0,0,0,1.2,4.793h0A3.344,3.344,0,0,0,2.473,5.8h0a17.708,17.708,0,0,0,1.986.719h0q1.1.347,1.707.607h0a2.764,2.764,0,0,1,1.028.745h0a1.843,1.843,0,0,1,.418,1.248h0a1.754,1.754,0,0,1-.818,1.517h0a3.846,3.846,0,0,1-2.212.563h0a5.486,5.486,0,0,1-2.125-.451h0A6.009,6.009,0,0,1,.558,9.5h0L0,10.486a6.7,6.7,0,0,0,2.082,1.335h0a6.408,6.408,0,0,0,2.482.5h0a5.973,5.973,0,0,0,2.282-.407h0a3.509,3.509,0,0,0,1.541-1.152h0a2.817,2.817,0,0,0,.549-1.716h0A2.8,2.8,0,0,0,8.4,7.263h0A3.524,3.524,0,0,0,7.115,6.231h0a14.418,14.418,0,0,0-1.994-.719h0a16.146,16.146,0,0,1-1.672-.6h0a2.95,2.95,0,0,1-1.028-.737h0A1.752,1.752,0,0,1,2,2.964H2A1.529,1.529,0,0,1,2.761,1.62h0a3.633,3.633,0,0,1,2.012-.494h0a6.18,6.18,0,0,1,1.672.251h0A6.334,6.334,0,0,1,8.082,2.1h0L8.6,1.075A6.993,6.993,0,0,0,6.837.294h0A7.065,7.065,0,0,0,4.843,0h0A5.891,5.891,0,0,0,2.665.372Z" transform="translate(0 0)" fill="none"/>
    </clipPath>
    <clipPath id="clip-path-10">
      <path id="Clip_40" data-name="Clip 40" d="M2.665.372A3.3,3.3,0,0,0,1.2,1.439h0A2.6,2.6,0,0,0,.68,3.051h0A2.744,2.744,0,0,0,1.2,4.793h0A3.345,3.345,0,0,0,2.473,5.8h0a17.7,17.7,0,0,0,1.986.719h0q1.1.347,1.707.607h0a2.768,2.768,0,0,1,1.028.745h0a1.843,1.843,0,0,1,.418,1.248h0a1.755,1.755,0,0,1-.819,1.517h0a3.846,3.846,0,0,1-2.212.563h0a5.49,5.49,0,0,1-2.125-.451h0A6,6,0,0,1,.558,9.5h0L0,10.486a6.7,6.7,0,0,0,2.081,1.335h0a6.411,6.411,0,0,0,2.482.5h0a5.969,5.969,0,0,0,2.282-.407h0a3.512,3.512,0,0,0,1.542-1.152h0a2.82,2.82,0,0,0,.549-1.716h0A2.8,2.8,0,0,0,8.4,7.263h0A3.523,3.523,0,0,0,7.115,6.231h0a14.468,14.468,0,0,0-1.995-.719h0a16.182,16.182,0,0,1-1.672-.6h0a2.948,2.948,0,0,1-1.028-.737h0A1.752,1.752,0,0,1,2,2.964H2A1.529,1.529,0,0,1,2.761,1.62h0a3.634,3.634,0,0,1,2.012-.494h0a6.184,6.184,0,0,1,1.672.251h0A6.341,6.341,0,0,1,8.082,2.1h0L8.6,1.075A7,7,0,0,0,6.836.294h0A7.065,7.065,0,0,0,4.842,0h0A5.892,5.892,0,0,0,2.665.372Z" transform="translate(0 0)" fill="none"/>
    </clipPath>
  </defs>
  <g id="Group_57" data-name="Group 57" transform="translate(-1800.734 -1337.195)">
    <g id="Group_11" data-name="Group 11" transform="translate(1800.734 1337.195)">
      <path id="Fill_1" data-name="Fill 1" d="M22.945,11.474c0,.077,0,.154,0,.233s0,.14-.005.209a.18.18,0,0,1,0,.037c0,.072-.005.148-.011.22s-.008.122-.011.183a.013.013,0,0,1,0,.008c0,.045-.008.092-.011.138-.008.108-.021.217-.032.323a16.263,16.263,0,0,1-1.679,5.367H16.028c-.045-.892-.109-2.11-.109-2.468a4.033,4.033,0,0,1,.328-1.88c.043-.021.088-.04.127-.061a4.726,4.726,0,0,0,2.084-4.255c0-2.495-1.406-4.518-3.141-4.518s-3.143,2.023-3.143,4.518A4.765,4.765,0,0,0,14.2,13.753l.1.05a3.943,3.943,0,0,1,.35,1.92c0,.386,0,1.316-.04,2.468H8.283c-.021-.813-.037-2.052-.045-2.491a4.254,4.254,0,0,1,1.506-3.265,2.629,2.629,0,0,0,.63-2.208c-.055-.466-.633-5.026-.683-5.42-.032-.243-.548-.312-.548.058s.148,6.04.148,6.358-.717.318-.736,0S8.524,5.1,8.524,4.88s-.519-.236-.538,0-.066,6.109-.066,6.342-.6.27-.62.034,0-6.143,0-6.376-.535-.236-.535.016-.034,6.042-.034,6.275-.752.27-.752,0,.138-6.008.151-6.257c.016-.336-.569-.352-.6.016-.034.4-.617,4.83-.67,5.3a2.638,2.638,0,0,0,.627,2.208A4.169,4.169,0,0,1,6.832,15.7c0,.074,0,1.636,0,2.491H1.6A16.6,16.6,0,0,1,.045,12.5c0-.029-.005-.061-.005-.093-.024-.315-.04-.625-.04-.935a11.472,11.472,0,1,1,22.945,0" transform="translate(0 0)" fill="#00d88b"/>
      <path id="Fill_3" data-name="Fill 3" d="M3.021,2.86,6.041,0H0Z" transform="translate(2.276 20.33)" fill="#00d88b"/>
      <path id="Fill_5" data-name="Fill 5" d="M3.021,2.86,6.042,0H0Z" transform="translate(14.616 20.33)" fill="#00d88b"/>
      <path id="Fill_7" data-name="Fill 7" d="M3.021,2.86,6.041,0H0Z" transform="translate(8.575 20.33)" fill="#00d88b"/>
      <path id="Fill_9" data-name="Fill 9" d="M9.942,0Q8.413,1.741,6.514,3.574a1.859,1.859,0,0,1-2.932.02A50.337,50.337,0,0,1,0,0Z" transform="translate(6.353 25.329)" fill="#00d88b"/>
    </g>
    <g id="Group_14" data-name="Group 14" transform="translate(1830.272 1353.9)">
      <path id="Clip_13-2" data-name="Clip 13" d="M0,0V2.312H3.943v9.951H6.8V2.312h3.943V0Z" transform="translate(0 0)" fill="none"/>
      <g id="Group_14-2" data-name="Group 14" transform="translate(0 0)" clip-path="url(#clip-path)">
        <path id="Fill_12" data-name="Fill 12" d="M0,16.5H14.973V0H0Z" transform="translate(-2.117 -2.117)" fill="#3c403f"/>
      </g>
    </g>
    <g id="Group_17" data-name="Group 17" transform="translate(1840.303 1353.9)">
      <path id="Clip_16-2" data-name="Clip 16" d="M2.923,12.264H0L5.493,0H8.31l5.51,12.263H10.827L9.736,9.636H4.015L2.923,12.263ZM6.884,2.786,4.93,7.481H8.838Z" transform="translate(0 0)" fill="none"/>
      <g id="Group_17-2" data-name="Group 17" transform="translate(0 0)" clip-path="url(#clip-path-2)">
        <path id="Fill_15" data-name="Fill 15" d="M0,16.5H18.054V0H0Z" transform="translate(-2.117 -2.117)" fill="#3c403f"/>
      </g>
    </g>
    <g id="Group_20" data-name="Group 20" transform="translate(1855.403 1353.9)">
      <path id="Clip_19-2" data-name="Clip 19" d="M11.513,0,6.972,7.62,2.36,0H0V12.263H2.677v-7.2l3.609,5.9H7.571L11.2,4.905l.017,7.358H13.89L13.856,0Z" transform="translate(0 0)" fill="none"/>
      <g id="Group_20-2" data-name="Group 20" transform="translate(0 0)" clip-path="url(#clip-path-3)">
        <path id="Fill_18" data-name="Fill 18" d="M0,16.5H18.124V0H0Z" transform="translate(-2.117 -2.117)" fill="#3c403f"/>
      </g>
    </g>
    <g id="Group_23" data-name="Group 23" transform="translate(1870.591 1353.9)">
      <path id="Clip_22-2" data-name="Clip 22" d="M2.923,12.264H0L5.492,0H8.31l5.508,12.263H10.826L9.735,9.636H4.014L2.923,12.263Zm3.96-9.478L4.93,7.481H8.837Z" transform="translate(0 0)" fill="none"/>
      <g id="Group_23-2" data-name="Group 23" transform="translate(0 0)" clip-path="url(#clip-path-4)">
        <path id="Fill_21" data-name="Fill 21" d="M0,16.5H18.053V0H0Z" transform="translate(-2.117 -2.117)" fill="#3c403f"/>
      </g>
    </g>
    <g id="Group_26" data-name="Group 26" transform="translate(1884.213 1353.024)">
      <path id="Clip_25-2" data-name="Clip 25" d="M0,1.682A1.554,1.554,0,0,0,.934,3.188h0L.176,5.956H1.919L2.94,3.434A4.229,4.229,0,0,0,3.4,1.682h0A1.614,1.614,0,0,0,1.708,0h0A1.628,1.628,0,0,0,0,1.682Z" transform="translate(0 0)" fill="none"/>
      <g id="Group_26-2" data-name="Group 26" transform="translate(0 0)" clip-path="url(#clip-path-5)">
        <path id="Fill_24" data-name="Fill 24" d="M0,10.19H7.632V0H0Z" transform="translate(-2.117 -2.117)" fill="#3c403f"/>
      </g>
    </g>
    <g id="Group_29" data-name="Group 29" transform="translate(1887.415 1353.9)">
      <path id="Clip_28-2" data-name="Clip 28" d="M2.923,12.264H0L5.493,0H8.31l5.51,12.263H10.826L9.735,9.636H4.015L2.923,12.263Zm3.96-9.478L4.93,7.481H8.838Z" transform="translate(0 0)" fill="none"/>
      <g id="Group_29-2" data-name="Group 29" transform="translate(0 0)" clip-path="url(#clip-path-6)">
        <path id="Fill_27" data-name="Fill 27" d="M0,16.5H18.054V0H0Z" transform="translate(-2.117 -2.117)" fill="#3c403f"/>
      </g>
    </g>
    <g id="Group_32" data-name="Group 32" transform="translate(1832.459 1338.163)">
      <path id="Clip_31-2" data-name="Clip 31" d="M1.2,12.116H0V0H4.494A5.287,5.287,0,0,1,8,1.048,3.7,3.7,0,0,1,9.232,4.021,3.915,3.915,0,0,1,8,7.107,5.141,5.141,0,0,1,4.494,8.2H1.2v3.917Zm0-11.041V7.123H4.442a4.122,4.122,0,0,0,2.691-.788,2.806,2.806,0,0,0,.949-2.28,2.7,2.7,0,0,0-.94-2.218,4.208,4.208,0,0,0-2.7-.762Z" transform="translate(0 0)" fill="none"/>
      <g id="Group_32-2" data-name="Group 32" transform="translate(0 0)" clip-path="url(#clip-path-7)">
        <path id="Fill_30" data-name="Fill 30" d="M0,16.35H13.465V0H0Z" transform="translate(-2.117 -2.117)" fill="#3c403f"/>
      </g>
    </g>
    <g id="Group_35" data-name="Group 35" transform="translate(1841.621 1338.163)">
      <path id="Clip_34-2" data-name="Clip 34" d="M1.289,12.116H0L5.487,0H6.741l5.486,12.116H10.921L9.476,8.892H2.718L1.289,12.116ZM6.079,1.265,3.188,7.818H9L6.079,1.265Z" transform="translate(0 0)" fill="none"/>
      <g id="Group_35-2" data-name="Group 35" transform="translate(0 0)" clip-path="url(#clip-path-8)">
        <path id="Fill_33" data-name="Fill 33" d="M0,16.35H16.462V0H0Z" transform="translate(-2.117 -2.117)" fill="#3c403f"/>
      </g>
    </g>
    <g id="Group_38" data-name="Group 38" transform="translate(1854.388 1338.042)">
      <path id="Clip_37-2" data-name="Clip 37" d="M2.665.372A3.3,3.3,0,0,0,1.2,1.439h0A2.6,2.6,0,0,0,.68,3.051h0A2.744,2.744,0,0,0,1.2,4.793h0A3.344,3.344,0,0,0,2.473,5.8h0a17.708,17.708,0,0,0,1.986.719h0q1.1.347,1.707.607h0a2.764,2.764,0,0,1,1.028.745h0a1.843,1.843,0,0,1,.418,1.248h0a1.754,1.754,0,0,1-.818,1.517h0a3.846,3.846,0,0,1-2.212.563h0a5.486,5.486,0,0,1-2.125-.451h0A6.009,6.009,0,0,1,.558,9.5h0L0,10.486a6.7,6.7,0,0,0,2.082,1.335h0a6.408,6.408,0,0,0,2.482.5h0a5.973,5.973,0,0,0,2.282-.407h0a3.509,3.509,0,0,0,1.541-1.152h0a2.817,2.817,0,0,0,.549-1.716h0A2.8,2.8,0,0,0,8.4,7.263h0A3.524,3.524,0,0,0,7.115,6.231h0a14.418,14.418,0,0,0-1.994-.719h0a16.146,16.146,0,0,1-1.672-.6h0a2.95,2.95,0,0,1-1.028-.737h0A1.752,1.752,0,0,1,2,2.964H2A1.529,1.529,0,0,1,2.761,1.62h0a3.633,3.633,0,0,1,2.012-.494h0a6.18,6.18,0,0,1,1.672.251h0A6.334,6.334,0,0,1,8.082,2.1h0L8.6,1.075A6.993,6.993,0,0,0,6.837.294h0A7.065,7.065,0,0,0,4.843,0h0A5.891,5.891,0,0,0,2.665.372Z" transform="translate(0 0)" fill="none"/>
      <g id="Group_38-2" data-name="Group 38" transform="translate(0 0)" clip-path="url(#clip-path-9)">
        <path id="Fill_36" data-name="Fill 36" d="M0,16.558H13.169V0H0Z" transform="translate(-2.117 -2.117)" fill="#3c403f"/>
      </g>
    </g>
    <g id="Group_41" data-name="Group 41" transform="translate(1864.978 1338.042)">
      <path id="Clip_40-2" data-name="Clip 40" d="M2.665.372A3.3,3.3,0,0,0,1.2,1.439h0A2.6,2.6,0,0,0,.68,3.051h0A2.744,2.744,0,0,0,1.2,4.793h0A3.345,3.345,0,0,0,2.473,5.8h0a17.7,17.7,0,0,0,1.986.719h0q1.1.347,1.707.607h0a2.768,2.768,0,0,1,1.028.745h0a1.843,1.843,0,0,1,.418,1.248h0a1.755,1.755,0,0,1-.819,1.517h0a3.846,3.846,0,0,1-2.212.563h0a5.49,5.49,0,0,1-2.125-.451h0A6,6,0,0,1,.558,9.5h0L0,10.486a6.7,6.7,0,0,0,2.081,1.335h0a6.411,6.411,0,0,0,2.482.5h0a5.969,5.969,0,0,0,2.282-.407h0a3.512,3.512,0,0,0,1.542-1.152h0a2.82,2.82,0,0,0,.549-1.716h0A2.8,2.8,0,0,0,8.4,7.263h0A3.523,3.523,0,0,0,7.115,6.231h0a14.468,14.468,0,0,0-1.995-.719h0a16.182,16.182,0,0,1-1.672-.6h0a2.948,2.948,0,0,1-1.028-.737h0A1.752,1.752,0,0,1,2,2.964H2A1.529,1.529,0,0,1,2.761,1.62h0a3.634,3.634,0,0,1,2.012-.494h0a6.184,6.184,0,0,1,1.672.251h0A6.341,6.341,0,0,1,8.082,2.1h0L8.6,1.075A7,7,0,0,0,6.836.294h0A7.065,7.065,0,0,0,4.842,0h0A5.892,5.892,0,0,0,2.665.372Z" transform="translate(0 0)" fill="none"/>
      <g id="Group_41-2" data-name="Group 41" transform="translate(0 0)" clip-path="url(#clip-path-10)">
        <path id="Fill_39" data-name="Fill 39" d="M0,16.558H13.169V0H0Z" transform="translate(-2.117 -2.117)" fill="#3c403f"/>
      </g>
    </g>
  </g>
</svg>
